<?xml version="1.0" standalone="no"?><!DOCTYPE svg PUBLIC "-//W3C//DTD SVG 1.1//EN" "http://www.w3.org/Graphics/SVG/1.1/DTD/svg11.dtd"><svg class="icon" height="512" viewBox="0 0 1024 1024" version="1.1" xmlns="http://www.w3.org/2000/svg"><path d="M828.140976 890.975795h-28.85104c-5.078471-105.060873-28.788584-184.214376-63.237206-243.593582l-0.458701-1.178492c-36.190251-62.092502-84.035388-102.636313-134.405426-127.330379 50.369015-25.153791 98.215176-65.236853 134.405426-127.265874l0.458701-1.240949c35.630185-61.832435 60.092854-145.377382 63.796247-257.265522h28.291999c19.325836 0 34.522341-15.162718 34.522342-34.223367 0-19.046315-15.196506-34.209033-34.522342-34.209033H195.38906c-19.094437 0-34.486506 15.16067-34.486505 34.209033 0 19.060649 15.392068 34.223367 34.486505 34.223367h28.324764c4.127282 111.888141 28.102581 195.433087 63.767578 257.265522l0.715696 1.240949c36.159534 62.031069 83.778393 102.113107 134.338874 127.265874-50.566625 24.694066-98.182412 65.237877-134.338874 127.330379l-0.715696 1.178492c-34.158862 59.379206-57.938599 138.532708-63.009903 243.593582h-29.083462c-19.094437 0-34.486506 15.16067-34.486506 33.73395 0 19.516278 15.392068 34.712784 34.486506 34.712784h632.751915c19.325836 0 34.522341-15.196506 34.522342-34.712784 0-18.572256-15.196506-33.73395-34.521318-33.73395zM323.14128 668.142512l0.525253-1.470299c41.524693-71.329995 86.881789-109.417505 147.041196-128.01843l2.354936-1.441631h0.493513c1.244021-0.489417 2.423537-0.980882 3.468923-1.966883l0.425936-0.454606 1.477467-1.016718 0.225255-0.489417 1.477466-1.443678 0.260067-0.491465c0.980882-1.01467 1.441631-2.196234 2.457325-3.437183v-0.454605c1.01467-1.509207 1.475419-3.215 1.475419-4.916698l0.226278-0.462796v-1.504087l0.230375-1.214328v-0.948118l-0.230375-1.244021v-0.984977l-0.226278-0.978835c0-1.704769-0.458701-3.405443-1.475419-4.879837v-0.492489c-1.015694-1.436511-1.477467-2.452205-2.457325-3.404419l-0.260067-0.754603-1.477466-1.211257h-0.225255l-1.477467-1.437535-0.425936-0.496584c-1.045387-0.751532-2.226951-1.471323-3.468923-2.220807l-0.493513-0.263139-2.354936-0.952213c-60.159406-18.075672-105.516502-56.690483-147.041196-128.507847l-0.525253-0.492489c-32.290271-56.461132-54.228038-133.390756-58.129041-236.990545h493.56904c-3.471995 103.599789-25.48041 180.529413-58.164878 236.990545l-0.489417 0.492489c-41.329131 71.817364-86.881789 110.432176-146.515942 128.507847l-2.946742 0.952213-0.491465 0.263139c-1.21228 0.749484-2.226951 1.470299-3.473019 2.220807l-0.454605 0.496584-1.477467 1.437535-1.667909 1.211257-0.230374 0.754603c-0.783272 0.952213-1.470299 1.963812-1.996576 3.404419l-0.489418 0.492489a246.582303 246.582303 0 0 0-1.477466 4.879837v7.337162c0.490441 1.700674 1.016718 3.40749 1.477466 4.916698l0.489418 0.454605a15.618347 15.618347 0 0 0 1.996576 3.437183l0.230374 0.491465 1.667909 1.443678v0.489417l1.477467 1.016718 0.454605 0.454606c1.015694 0.986002 2.260739 1.477467 3.473019 1.966883h0.491465l2.946742 1.441631c59.634153 18.600925 105.186811 56.688435 146.515942 128.01843l0.489417 1.471323c17.323116 29.347625 31.211096 65.010575 41.527765 106.53322 2.194186 11.826899 9.541587 37.883757 11.563761 71.564465-32.832931-29.071176-124.817764-50.397683-234.797383-52.048187V470.525477a27.388932 27.388932 0 0 0 3.289744-1.23071l0.260067-0.489417 5.861743-2.199306 0.525253-0.259043h0.492489c39.82402-12.444302 72.049786-32.226791 98.414834-58.165901 28.424081-27.838418 49.875502-62.520486 64.479178-100.669429 3.965508-10.742605-0.881565-22.471211-11.656934-26.366071-10.740557-4.389396-22.725135 0.98293-26.918969 11.758299-12.871262 32.485834-30.754444 62.288064-54.98469 86.001248-21.51695 21.023437-48.080631 37.598093-81.321068 47.877901l-0.980882 0.462796-2.423537 0.489418-1.996576 0.981906-1.966884-0.981906-1.471323-0.489418-1.931048-0.462796c-32.681396-10.279809-59.835858-26.854464-81.119362-47.877901-24.431952-23.713184-42.246532-53.515414-55.186396-86.001248-3.895884-10.774345-16.142576-16.147695-26.360951-11.758299-10.776393 3.895884-15.690019 15.62449-11.79004 26.366071 14.704017 38.149967 35.728478 72.835106 64.516039 100.669429 25.903275 25.939111 58.654295 45.721599 98.212104 58.165901h0.230374l0.751532 0.259043 5.369254 2.199306 1.475419 0.489417c0.759723 0.363479 1.564497 0.74846 2.470636 1.139584v323.657319c-103.040747 0-192.145392 17.255539-234.747213 42.327419 1.46518-16.545987 4.888029-35.306638 11.381509-61.741309 10.281856-42.016158 24.426832-77.185595 41.556434-106.535268z" /></svg>